
<svg viewBox="0 0 100 100" xmlns="http://www.w3.org/2000/svg">
  <path d="M20 20 Q20 10, 30 10 Q40 10, 40 20 Q40 30, 30 30 Q20 30, 20 20 Z M60 20 Q60 10, 70 10 Q80 10, 80 20 Q80 30, 70 30 Q60 30, 60 20 Z M10 40 Q10 30, 20 30 Q30 30, 30 40 Q30 50, 20 50 Q10 50, 10 40 Z M70 40 Q70 30, 80 30 Q90 30, 90 40 Q90 50, 80 50 Q70 50, 70 40 Z M5 60 Q5 50, 15 50 Q25 50, 25 60 Q25 70, 15 70 Q5 70, 5 60 Z M75 60 Q75 50, 85 50 Q95 50, 95 60 Q95 70, 85 70 Q75 70, 75 60 Z M15 80 Q15 70, 25 70 Q35 70, 35 80 Q35 90, 25 90 Q15 90, 15 80 Z M65 80 Q65 70, 75 70 Q85 70, 85 80 Q85 90, 75 90 Q65 90, 65 80 Z M35 35 Q35 25, 45 25 Q55 25, 55 35 L55 50 Q55 60, 45 60 Q35 60, 35 50 Z M35 65 L65 65 Q70 65, 70 70 Q70 75, 65 75 L35 75 Q30 75, 30 70 Q30 65, 35 65 Z" fill="white"/>
</svg>
