
<svg viewBox="0 0 100 100" xmlns="http://www.w3.org/2000/svg">
  <path d="M50 10 Q40 10, 40 20 Q40 30, 50 30 Q60 30, 60 20 Q60 10, 50 10 Z M50 40 L50 60 Q50 70, 40 70 Q30 70, 30 80 Q30 90, 40 90 L60 90 Q70 90, 70 80 Q70 70, 60 70 Q50 70, 50 60 Z M20 20 Q10 20, 10 30 Q10 40, 20 40 Q30 40, 30 30 Q30 20, 20 20 Z M80 20 Q70 20, 70 30 Q70 40, 80 40 Q90 40, 90 30 Q90 20, 80 20 Z M35 50 Q25 50, 25 60 Q25 70, 35 70 Q45 70, 45 60 Q45 50, 35 50 Z M65 50 Q55 50, 55 60 Q55 70, 65 70 Q75 70, 75 60 Q75 50, 65 50 Z" fill="white"/>
</svg>
